<svg width="2282" height="481" viewBox="0 0 2282 481" fill="none" xmlns="http://www.w3.org/2000/svg">
<path d="M1110.43 480.769H1029.02L1053.08 365.568C1044.21 370.006 1034.99 373.59 1025.44 376.32C1015.88 378.71 1005.98 379.904 995.74 379.904C973.212 379.904 952.732 374.443 934.3 363.521C916.209 352.257 901.703 337.067 890.78 317.952C882.55 303.084 877.52 286.873 875.691 269.32H958.507C959.706 272.687 961.193 275.927 962.972 279.04C968.433 288.597 975.943 296.107 985.5 301.568C995.399 307.03 1006.32 309.761 1018.27 309.761C1028.17 309.761 1037.21 308.395 1045.4 305.664C1053.6 302.592 1061.45 298.155 1068.96 292.353L1073.88 269.32H1155.14L1110.43 480.769ZM1585.93 269.32C1588.67 277.982 1593.06 285.66 1599.08 292.353C1605.22 299.179 1612.56 304.47 1621.1 308.225C1629.97 311.979 1639.87 313.856 1650.79 313.856C1661.71 313.856 1671.61 312.32 1680.49 309.248C1689.7 305.835 1697.73 301.056 1704.55 294.912L1750.12 346.624C1733.05 359.253 1716.16 368.299 1699.43 373.761C1683.05 379.222 1664.62 381.952 1644.14 381.952C1617.17 381.952 1593.11 376.491 1571.94 365.568C1551.12 354.304 1534.74 338.944 1522.79 319.488C1513.61 304.277 1507.96 287.554 1505.83 269.32H1585.93ZM2030.37 269.32C2031.93 275.124 2032.71 281.265 2032.71 287.744C2032.71 305.493 2027.59 321.536 2017.35 335.872C2007.11 350.208 1993.12 361.472 1975.37 369.664C1957.62 377.856 1937.48 381.952 1914.95 381.952C1889.01 381.952 1864.26 378.027 1840.71 370.177C1817.16 361.985 1797.53 351.062 1781.83 337.408L1826.89 284.16C1842.25 296.107 1857.1 305.153 1871.43 311.297C1886.11 317.1 1900.79 320.001 1915.46 320.001C1927.41 320.001 1936.97 317.952 1944.14 313.856C1951.3 309.76 1954.89 304.47 1954.89 297.984C1954.89 293.206 1952.84 289.281 1948.74 286.209C1944.65 283.137 1938.67 280.747 1930.82 279.04L1886.2 269.32H2030.37ZM842.486 269.32C840.622 275.949 838.257 282.433 835.388 288.769C827.537 306.859 816.444 322.902 802.108 336.896C788.114 350.891 771.9 361.813 753.468 369.664C735.036 377.515 715.409 381.44 694.588 381.44C668.647 381.44 645.436 375.809 624.956 364.545C604.476 352.94 588.263 337.238 576.316 317.44C567.434 302.721 561.855 286.681 559.576 269.32H641.591C642.743 272.871 644.196 276.282 645.948 279.553C651.068 289.11 658.066 296.619 666.94 302.08C676.156 307.2 686.567 309.761 698.172 309.761C707.729 309.761 716.604 307.883 724.796 304.129C733.329 300.033 740.839 294.571 747.324 287.744C752.449 282.349 756.615 276.208 759.821 269.32H842.486ZM1439.01 376.32H1357.6L1361.19 359.425C1339.34 373.419 1315.79 380.417 1290.53 380.417C1269.03 380.417 1250.94 375.467 1236.26 365.568C1221.58 355.67 1211.34 342.187 1205.54 325.12C1199.97 308.725 1199.12 290.125 1202.99 269.32H1285.15C1284.68 280.071 1287.33 289.114 1293.09 296.448C1300.6 305.664 1311.87 310.272 1326.88 310.272C1336.44 310.272 1345.32 308.566 1353.51 305.152C1361.7 301.739 1369.21 296.79 1376.04 290.305L1380.45 269.32H1461.67L1439.01 376.32ZM309.89 269.32C308.191 275.428 306.101 281.399 303.616 287.232C295.766 305.664 284.842 321.877 270.848 335.872C257.194 349.525 241.152 360.278 222.72 368.129C204.629 375.979 185.002 379.904 163.84 379.904C148.48 379.904 134.144 377.515 120.832 372.736C107.861 367.958 96.0852 361.131 85.5039 352.257L80.3838 376.32H0L22.7754 269.32H103.825L100.864 283.137C107.691 291.329 116.224 297.814 126.464 302.593C137.045 307.03 148.48 309.248 160.768 309.248C175.104 309.248 187.904 306.006 199.168 299.521C210.432 292.694 219.307 283.649 225.792 272.385C226.405 271.373 226.99 270.351 227.548 269.32H309.89ZM2170.78 276.48C2168.39 288.768 2169.58 297.643 2174.36 303.104C2179.48 308.566 2188.87 311.297 2202.52 311.297C2208.32 311.297 2213.78 310.955 2218.9 310.272C2224.37 309.59 2230.17 308.565 2236.31 307.2L2221.98 373.761C2215.49 375.126 2207.13 376.321 2196.89 377.345C2186.99 378.71 2177.77 379.393 2169.24 379.393C2136.81 379.393 2113.43 371.713 2099.1 356.353C2085.1 340.651 2081.18 318.294 2087.32 289.28L2091.6 269.32H2172.32L2170.78 276.48ZM406.408 376.32H325L347.654 269.32H428.935L406.408 376.32ZM136.704 116.225C155.136 106.667 174.421 101.889 194.56 101.889C217.429 101.889 237.909 107.52 256 118.784C274.091 129.707 288.426 144.726 299.008 163.841C307.187 177.899 312.304 193.392 314.358 210.32H231.493C230.454 207.72 229.237 205.197 227.84 202.753C222.379 193.196 214.698 185.686 204.8 180.225C195.243 174.763 184.32 172.032 172.032 172.032C162.475 172.032 153.429 173.569 144.896 176.641C136.362 179.371 128.341 183.808 120.832 189.952L116.468 210.32H35.334L76.2881 17.9209L161.28 0L136.704 116.225ZM528.264 100.353C544.306 100.353 556.082 103.254 563.592 109.057L548.744 180.736C545.331 178.006 539.357 175.616 530.824 173.568C522.632 171.52 514.782 170.496 507.272 170.496C482.014 170.496 460.68 180.737 443.272 201.217L441.355 210.32H360.146L382.344 105.473H463.752L458.632 129.536C468.53 119.979 479.282 112.811 490.888 108.032C502.834 102.912 515.293 100.353 528.264 100.353ZM711.996 100.353C737.937 100.353 760.978 106.155 781.116 117.761C801.596 129.025 817.809 144.555 829.756 164.353C838.306 178.277 843.796 193.599 846.227 210.32H763.814C762.784 207.507 761.554 204.814 760.124 202.24C755.004 192.683 747.836 185.345 738.62 180.225C729.746 174.763 719.506 172.032 707.9 172.032C698.343 172.032 689.297 174.081 680.764 178.177C672.572 181.931 665.233 187.222 658.748 194.049C654.163 198.875 650.261 204.299 647.041 210.32H563.966C565.652 204.439 567.721 198.673 570.172 193.024C578.364 174.592 589.457 158.55 603.452 144.896C617.788 130.902 634.172 119.98 652.604 112.129C671.377 104.278 691.175 100.353 711.996 100.353ZM1026.46 101.889C1041.82 101.889 1056.16 104.108 1069.47 108.545C1082.78 112.641 1094.56 118.955 1104.8 127.488L1109.4 105.473H1189.79L1167.62 210.32H1086.5L1089.44 196.608C1082.61 189.099 1073.91 183.296 1063.32 179.2C1052.74 174.763 1041.48 172.545 1029.53 172.545C1015.54 172.545 1002.91 175.958 991.644 182.784C980.38 189.269 971.334 198.144 964.508 209.408C964.328 209.711 964.151 210.015 963.977 210.32H881.026C882.606 204.961 884.491 199.707 886.684 194.561C894.534 176.129 905.287 160.086 918.94 146.433C932.935 132.438 949.148 121.515 967.58 113.664C986.012 105.813 1005.64 101.889 1026.46 101.889ZM1296.84 210.32H1215.5L1237.8 105.473H1319.2L1296.84 210.32ZM1474.16 210.32H1392.88L1414.95 105.473H1496.36L1474.16 210.32ZM1653.35 101.377C1677.93 101.377 1699.6 107.008 1718.38 118.272C1737.15 129.536 1751.83 145.067 1762.41 164.864C1769.79 178.438 1774.6 193.59 1776.83 210.32H1701.66C1699.26 202.27 1695.62 195.31 1690.73 189.44C1685.95 182.955 1679.98 178.006 1672.81 174.593C1665.98 171.179 1658.3 169.473 1649.77 169.473C1640.89 169.473 1632.7 171.35 1625.19 175.104C1617.68 178.518 1610.86 183.296 1604.71 189.44C1599.17 195.31 1594.56 202.27 1590.89 210.32H1510.63C1512.16 204.97 1514 199.717 1516.14 194.561C1523.99 176.129 1534.74 159.915 1548.39 145.921C1562.04 131.926 1577.75 121.003 1595.5 113.152C1613.59 105.302 1632.87 101.377 1653.35 101.377ZM1920.58 101.377C1943.11 101.377 1964.79 104.961 1985.61 112.129C2006.43 119.297 2024.69 129.366 2040.39 142.337L1995.85 192.513C1982.19 182.614 1968.54 175.104 1954.89 169.984C1941.23 164.864 1927.92 162.305 1914.95 162.305C1904.71 162.305 1896.69 164.011 1890.89 167.425C1885.09 170.838 1882.18 175.787 1882.18 182.272C1882.18 187.392 1884.23 191.659 1888.33 195.072C1892.77 198.144 1899.93 200.705 1909.83 202.753L1944.57 210.32H1811.96C1810.65 204.551 1809.99 198.444 1809.99 192.001C1809.99 173.228 1814.43 157.184 1823.3 143.872C1832.18 130.219 1844.81 119.809 1861.19 112.641C1877.92 105.131 1897.71 101.377 1920.58 101.377ZM2207.13 105.473H2281.37L2267.03 174.593H2192.79L2185.07 210.32H2104.24L2111.9 174.593H2058.14L2072.47 105.473H2126.23L2141.08 35.8408L2226.07 17.9209L2207.13 105.473Z" fill="black"/>
</svg>
